<?xml version="1.0" standalone="no"?><!DOCTYPE svg PUBLIC "-//W3C//DTD SVG 1.1//EN" "http://www.w3.org/Graphics/SVG/1.1/DTD/svg11.dtd"><svg t="1742643218999" class="icon" viewBox="0 0 1024 1024" version="1.1" xmlns="http://www.w3.org/2000/svg" p-id="9949" xmlns:xlink="http://www.w3.org/1999/xlink" width="1024" height="1024"><path d="M884.992 38.4c68.6336 0 124.288 52.992 124.288 118.4V709.376c0 65.3824-55.6544 118.4-124.3136 118.4h-236.1344l-238.208 151.2448a43.2128 43.2128 0 0 1-39.3984 3.3536 39.8592 39.8592 0 0 1-24.3968-29.6448l-0.5888-6.5536v-118.4H139.008c-64.0256 0-117.6064-46.336-123.7504-107.0336l-0.5632-11.3664V156.8C14.72 91.4176 70.3744 38.4 139.008 38.4h745.9328z m7.6288 75.264H131.3792c-23.3472 0-42.2912 17.9712-42.2912 40.1408v562.0992c0 22.1696 18.944 40.1664 42.2912 40.1664h253.7472c23.3472 0 42.2912 17.9712 42.2912 40.1408v85.4272l188.032-118.8352c4.608-2.9184 9.7792-4.9152 15.232-5.9392l8.192-0.7936h253.7472c23.3472 0 42.2912-17.9968 42.2912-40.1664V153.8048c0-22.1696-18.944-40.1664-42.2912-40.1664z" fill="#13227a" p-id="9950"></path><path d="M309.5552 628.7104c19.9168 0 30.976-10.24 38.7328-36.2496l21.0176-64.1792h132.5312l21.2992 64.1792c7.4752 25.728 19.072 36.2496 39.2704 36.2496 21.3248 0 35.4304-12.7232 35.4304-32.64 0-7.7568-1.9456-16.896-5.8112-28.7744l-95.1808-272.7936c-11.904-35.4048-28.4928-49.792-59.7504-49.792-31.5392 0-48.4096 14.6688-60.3136 49.792L281.6 567.296c-4.6848 14.08-6.6304 22.6816-6.6304 30.1568 0 18.7904 14.1056 31.232 34.56 31.232z m76.3648-156.032l48.128-152.7296h3.584l47.872 152.7296h-99.584zM688.5632 628.1472c23.5264 0 37.0688-14.9248 37.0688-40.3968V285.3632c0-25.4464-13.824-40.3712-37.3248-40.3712-23.808 0-37.376 14.9248-37.376 40.3712V587.776c0 25.472 13.824 40.3968 37.632 40.3968z" fill="#13227a" p-id="9951"></path></svg>