<?xml version="1.0" standalone="no"?><!DOCTYPE svg PUBLIC "-//W3C//DTD SVG 1.1//EN" "http://www.w3.org/Graphics/SVG/1.1/DTD/svg11.dtd"><svg t="1742643171350" class="icon" viewBox="0 0 1024 1024" version="1.1" xmlns="http://www.w3.org/2000/svg" p-id="8023" xmlns:xlink="http://www.w3.org/1999/xlink" width="1024" height="1024"><path d="M715.1 238.5h89.4v695.9H315.7V238.5h100.7" fill="#91B4FF" p-id="8024"></path><path d="M697.5 308.9h-356c-13.3 0-24-10.7-24-24v-96c0-13.3 10.8-24 24-24h66V89.5c0-13.3 10.8-24 24-24h176c13.3 0 24 10.7 24 24v75.3h66c13.3 0 24 10.7 24 24v96c0 13.3-10.7 24.1-24 24.1z m-332-48h308v-48h-66c-13.3 0-24-10.7-24-24v-75.3h-128v75.3c0 13.3-10.8 24-24 24h-66v48z" fill="#3778FF" p-id="8025"></path><path d="M219.7 577.1c-13.3 0-24-10.7-24-24V238.5c0-13.3 10.8-24 24-24h120.5c13.3 0 24 10.7 24 24s-10.8 24-24 24h-96.5v290.6c0 13.2-10.7 24-24 24zM219.7 708.1c-13.3 0-24-10.7-24-24v-43c0-13.3 10.8-24 24-24 13.3 0 24 10.7 24 24v43c0 13.3-10.7 24-24 24zM804.5 958.4H219.7c-13.3 0-24-10.7-24-24V768.1c0-13.3 10.8-24 24-24 13.3 0 24 10.7 24 24v142.3h536.8V262.5h-83c-13.3 0-24-10.7-24-24s10.8-24 24-24h107c13.3 0 24 10.7 24 24v695.9c0 13.3-10.7 24-24 24z" fill="#3778FF" p-id="8026"></path><path d="M715.5 496.1H308.8c-13.3 0-24-10.7-24-24s10.8-24 24-24h406.7c13.3 0 24 10.7 24 24 0 13.2-10.8 24-24 24zM715.5 630.6H308.8c-13.3 0-24-10.7-24-24s10.8-24 24-24h406.7c13.3 0 24 10.7 24 24s-10.8 24-24 24zM715.5 765.2H308.8c-13.3 0-24-10.7-24-24s10.8-24 24-24h406.7c13.3 0 24 10.7 24 24s-10.8 24-24 24z" fill="#3778FF" p-id="8027"></path></svg>