<?xml version="1.0" standalone="no"?><!DOCTYPE svg PUBLIC "-//W3C//DTD SVG 1.1//EN" "http://www.w3.org/Graphics/SVG/1.1/DTD/svg11.dtd"><svg t="1743429220041" class="icon" viewBox="0 0 1024 1024" version="1.1" xmlns="http://www.w3.org/2000/svg" p-id="11760" data-spm-anchor-id="a313x.search_index.0.i17.cd873a81cr28Pc" xmlns:xlink="http://www.w3.org/1999/xlink" width="256" height="256"><path d="M589.308609 122.066225c-15.597351-15.597351-40.688742-15.597351-56.286092 0l-9.49404 9.49404-9.49404-9.49404c-15.597351-15.597351-40.688742-15.597351-56.286093 0-15.597351 15.597351-15.597351 40.688742 0 56.286093l65.780133 65.780132 65.780132-65.780132c15.597351-15.597351 15.597351-40.688742 0-56.286093z m0 0M417.059603 602.871523V382.474172c0-29.160265 33.907285-45.435762 56.286092-27.125828 6.103311 4.74702 13.562914 7.459603 21.700663 7.459603h54.929801c8.137748 0 15.597351-2.712583 21.700662-7.459603 22.378808-18.309934 56.286093-2.034437 56.286093 27.125828v220.397351M707.984106 614.4h147.157616V752.741722c0 93.584106-75.952318 169.536424-169.536424 169.536424h-250.913907c-93.584106 0-169.536424-75.952318-169.536424-169.536424V614.4h147.157616" fill="#BBDEFB" p-id="11761" data-spm-anchor-id="a313x.search_index.0.i13.cd873a81cr28Pc" class=""></path><path d="M265.154967 602.193377h577.101987v52.895365H265.154967z" fill="#FFFFFF" p-id="11762"></path><path d="M443.507285 595.411921v44.757615c0 21.700662-16.953642 41.366887-38.654305 42.045034-22.378808 0.678146-40.688742-17.631788-40.688742-40.010596v-46.113908c0-11.528477 8.815894-20.344371 20.344371-20.344371h39.332451c10.850331 0 19.666225 8.815894 19.666225 19.666226z m239.38543 0v44.757615c0 21.700662-16.953642 41.366887-38.654304 42.045034-22.378808 0.678146-40.688742-17.631788-40.688742-40.010596v-46.113908c0-11.528477 8.815894-20.344371 20.344371-20.344371h39.33245c10.172185 0 19.666225 8.815894 19.666225 19.666226z m0 0" fill="#BBDEFB" p-id="11763" data-spm-anchor-id="a313x.search_index.0.i16.cd873a81cr28Pc" class="selected"></path><path d="M523.528477 262.442384l-75.274172-74.596026c-10.172185-10.172185-15.597351-23.056954-15.597351-37.298014s5.425166-27.125828 15.597351-37.298013c10.172185-10.172185 23.056954-15.597351 37.298013-15.597351s27.125828 5.425166 37.298013 15.597351c10.172185-10.172185 23.056954-15.597351 37.298013-15.597351s27.125828 5.425166 37.298014 15.597351c10.172185 10.172185 15.597351 23.056954 15.597351 37.298013s-5.425166 27.125828-15.597351 37.298014l-73.917881 74.596026z m-37.976159-139.019867c-7.459603 0-14.24106 2.712583-18.98808 8.137748-10.172185 10.172185-10.172185 27.803974 0 37.976159l56.286093 56.286093 56.286093-56.286093c10.172185-10.172185 10.172185-27.803974 0-37.976159-4.74702-4.74702-11.528477-8.137748-18.98808-8.137748-7.459603 0-14.24106 2.712583-18.988079 8.137748l-18.309934 18.309934-18.309934-18.309934c-4.74702-5.425166-11.528477-8.137748-18.988079-8.137748z m0 0" fill="#2196F3" p-id="11764" data-spm-anchor-id="a313x.search_index.0.i10.cd873a81cr28Pc" class=""></path><path d="M921.6 321.44106c-15.597351-15.597351-40.688742-15.597351-56.286093 0l-9.494039 9.494039-9.49404-9.494039c-15.597351-15.597351-40.688742-15.597351-56.286093 0-15.597351 15.597351-15.597351 40.688742 0 56.286092l65.780133 65.780133 65.780132-65.780133c15.597351-15.597351 15.597351-40.688742 0-56.286092z m0 0" fill="#DEADC9" p-id="11765"></path><path d="M855.819868 461.817219L780.545695 386.543046c-20.344371-20.344371-20.344371-54.251656 0-74.596026s54.251656-20.344371 74.596027 0c20.344371-20.344371 54.251656-20.344371 74.596026 0s20.344371 54.251656 0 74.596026l-73.91788 75.274173z" fill="#BBDEFB" p-id="11766" data-spm-anchor-id="a313x.search_index.0.i15.cd873a81cr28Pc" class=""></path><path d="M817.843709 322.797351c-7.459603 0-14.24106 2.712583-18.98808 8.137748-10.172185 10.172185-10.172185 27.803974 0 37.976159l56.286093 56.286093 56.286093-56.286093c10.172185-10.172185 10.172185-27.803974 0-37.976159s-27.803974-10.172185-37.976159 0l-18.309934 18.309934-18.309934-18.309934c-4.74702-5.425166-11.528477-8.137748-18.988079-8.137748z" fill="#2196F3" p-id="11767" data-spm-anchor-id="a313x.search_index.0.i8.cd873a81cr28Pc" class=""></path><path d="M257.017219 321.44106c-15.597351-15.597351-40.688742-15.597351-56.286093 0l-9.49404 9.494039-9.49404-9.494039c-15.597351-15.597351-40.688742-15.597351-56.286092 0-15.597351 15.597351-15.597351 40.688742 0 56.286092l65.780132 65.780133 65.780133-65.780133c15.597351-15.597351 15.597351-40.688742 0-56.286092z m0 0" fill="#DEADC9" p-id="11768"></path><path d="M191.237086 461.817219l-75.274172-74.596027c-20.344371-20.344371-20.344371-54.251656 0-74.596026s54.251656-20.344371 74.596026 0c20.344371-20.344371 54.251656-20.344371 74.596027 0s20.344371 54.251656 0 74.596026l-73.917881 74.596027z" fill="#BBDEFB" p-id="11769" data-spm-anchor-id="a313x.search_index.0.i14.cd873a81cr28Pc" class=""></path><path d="M153.260927 322.797351c-7.459603 0-14.24106 2.712583-18.988079 8.137748-10.172185 10.172185-10.172185 27.803974 0 37.976159l56.286092 56.286093 56.286093-56.286093c10.172185-10.172185 10.172185-27.803974 0-37.976159s-27.803974-10.172185-37.976159 0l-18.309934 18.309934-18.309933-18.309934c-4.74702-5.425166-11.528477-8.137748-18.98808-8.137748zM390.611921 868.02649H657.801325c7.459603 0 12.884768 6.103311 12.884768 12.884768 0 7.459603-6.103311 12.884768-12.884768 12.884768H390.611921c-7.459603 0-12.884768-6.103311-12.884769-12.884768 0-6.781457 5.425166-12.884768 12.884769-12.884768z" fill="#2196F3" p-id="11770" data-spm-anchor-id="a313x.search_index.0.i5.cd873a81cr28Pc" class=""></path><path d="M695.099338 589.308609c-1.356291-8.137748-6.103311-14.919205-12.884768-19.666225v-20.344371c0-14.919205 12.206623-27.125828 27.125827-27.125828h25.091391c26.447682 0 50.182781-18.988079 54.251656-44.757615 4.74702-32.550993-20.344371-61.033113-52.217219-61.033113h-13.562914c-7.459603 0-12.884768 6.103311-12.884768 12.884768 0 7.459603 6.103311 12.884768 12.884768 12.884768h12.206623c12.884768 0 25.091391 8.815894 27.125828 21.022517 3.390728 16.953642-9.49404 32.550993-26.447683 32.550993h-26.447682c-29.160265 0-52.895364 23.735099-52.895364 52.895365v13.562913h-14.919205v-244.13245c0-14.24106-16.953642-22.378808-27.803974-12.884768l-42.045033 35.263576c-8.137748 6.781457-18.988079 10.850331-29.160265 10.850331h-42.045033c-7.459603 0-14.24106-2.712583-20.344371-7.459602L434.013245 306.521854c-11.528477-9.49404-29.160265-1.356291-29.160265 14.24106V562.860927h-19.666225c-16.275497 0-29.160265 11.528477-32.550993 26.447682H221.075497c-16.953642 0-29.838411 13.562914-29.838411 29.838411v132.23841c0 108.503311 87.480795 195.984106 195.984106 195.984106h271.936424c108.503311 0 195.984106-87.480795 195.984106-195.984106V624.572185c0-19.666225-15.597351-35.263576-35.263576-35.263576H695.099338z m-79.343047 6.103312c0-4.068874 3.390728-7.459603 7.459603-7.459603h39.33245c4.068874 0 7.459603 3.390728 7.459603 7.459603v45.435761c0 12.884768-8.815894 25.091391-21.022517 27.125828-16.953642 3.390728-32.550993-9.49404-32.550993-26.447682v-46.113907zM478.770861 377.049007h88.837086l17.631788-14.919206c11.528477-9.49404 29.160265-1.356291 29.160265 13.562914v187.846358c-12.884768 3.390728-22.378808 13.562914-25.091391 27.125828H455.713907c-2.034437-13.562914-12.884768-24.413245-26.447682-27.125828V375.01457c0-14.919205 17.631788-23.735099 29.160265-14.24106l20.344371 16.275497zM589.986755 644.238411H456.392053v-27.803974H589.986755V644.238411z m-212.937748-48.82649c0-4.068874 3.390728-7.459603 7.459602-7.459603h39.332451c4.068874 0 7.459603 3.390728 7.459602 7.459603v45.435761c0 12.884768-8.815894 25.091391-21.022516 27.125828-16.953642 3.390728-32.550993-9.49404-32.550994-26.447682v-46.113907z m405.531125 272.614569H710.018543c-7.459603 0-12.884768 6.103311-12.884768 12.884768 0 7.459603 6.103311 12.884768 12.884768 12.884768h42.045033c-26.447682 16.953642-58.32053 27.125828-92.227814 27.125828H387.221192c-33.907285 0-65.780132-10.172185-92.227815-27.125828h43.401325c7.459603 0 12.884768-6.103311 12.884768-12.884768 0-7.459603-6.103311-12.884768-12.884768-12.884768h-74.596027c-28.482119-30.516556-46.792053-71.883444-46.792052-116.64106v-81.377483h27.803973c7.459603 0 12.884768-6.103311 12.884768-12.884768 0-7.459603-6.103311-12.884768-12.884768-12.884768H217.006623v-29.160265h133.594702V644.238411h-54.251656c-7.459603 0-12.884768 6.103311-12.884768 12.884768 0 7.459603 6.103311 12.884768 12.884768 12.884768h62.389404c9.49404 14.919205 25.769536 24.413245 44.757616 24.413245s35.263576-10.172185 44.757616-24.413245h149.870198c9.49404 14.919205 25.769536 24.413245 44.757616 24.413245s35.263576-10.172185 44.757616-24.413245h75.952318c7.459603 0 12.884768-6.103311 12.884768-12.884768 0-7.459603-6.103311-12.884768-12.884768-12.884768h-67.81457v-29.160265h133.594702V644.238411h-13.562913c-7.459603 0-12.884768 6.103311-12.884769 12.884768 0 7.459603 6.103311 12.884768 12.884769 12.884768h13.562913v81.377483c0 44.757616-17.631788 86.124503-46.792053 116.64106z m0 0" fill="#2196F3" p-id="11771" data-spm-anchor-id="a313x.search_index.0.i9.cd873a81cr28Pc" class=""></path></svg>