<?xml version="1.0" standalone="no"?><!DOCTYPE svg PUBLIC "-//W3C//DTD SVG 1.1//EN" "http://www.w3.org/Graphics/SVG/1.1/DTD/svg11.dtd"><svg t="1743349325359" class="icon" viewBox="0 0 1024 1024" version="1.1" xmlns="http://www.w3.org/2000/svg" p-id="4385" xmlns:xlink="http://www.w3.org/1999/xlink" width="1024" height="1024"><path d="M712.003 783.47h35.136c20.342 0 36.84-12.218 36.84-27.266s-16.498-27.267-36.84-27.267h-35.136c-20.341 0-36.839 12.22-36.839 27.267 0.037 15.083 16.535 27.266 36.84 27.266z m0-163.6h35.136c20.342 0 36.84-12.22 36.84-27.266 0-15.048-16.498-27.267-36.84-27.267h-35.136c-20.341 0-36.839 12.22-36.839 27.267 0.037 15.046 16.535 27.266 36.84 27.266z m-217.589 0h35.135c20.342 0 36.84-12.22 36.84-27.266 0-15.048-16.498-27.267-36.84-27.267h-35.135c-20.34 0-36.839 12.22-36.839 27.267 0.036 15.046 16.534 27.266 36.84 27.266z m-217.59 0h35.135c20.342 0 36.84-12.22 36.84-27.266 0-15.048-16.498-27.267-36.84-27.267h-35.134c-20.341 0-36.84 12.22-36.84 27.267 0.037 15.046 16.534 27.266 36.84 27.266z m217.59 163.6h35.135c20.342 0 36.84-12.218 36.84-27.266s-16.498-27.267-36.84-27.267h-35.135c-20.34 0-36.839 12.22-36.839 27.267 0.036 15.083 16.534 27.266 36.84 27.266z m-217.59 0h35.135c20.342 0 36.84-12.218 36.84-27.266s-16.498-27.268-36.84-27.268h-35.134c-20.341 0-36.84 12.22-36.84 27.267 0.037 15.084 16.534 27.267 36.84 27.267z m510.163-599.976h-54.895v-77.593c0.071-0.761 0.11-1.487 0.11-2.248 0-14.758-11.966-26.76-26.689-26.76-14.611 0-26.467 11.785-26.685 26.36v80.241h-330.9v-77.593c0.073-0.761 0.11-1.487 0.11-2.248 0-14.758-11.966-26.76-26.686-26.76-14.613 0-26.469 11.785-26.65 26.36v80.241H237.05c-88.364 0-160.228 62.112-160.228 179.41V784.74c0 84.338 63.78 153.847 145.035 161.642l565.131 0.726c88.328 0 160.191-72.844 160.191-162.404V345.862c0-89.523-71.864-162.368-160.192-162.368z m105.805 617.272c0 50.618-43.838 91.807-97.719 91.807h-566.11c-53.88 0-97.754-41.19-97.754-91.807V456.235h761.583v344.53z m0-399.065H131.208v-71.792c0-44.997 39.45-91.807 108.814-91.807H294.7v81.872h0.036c0.508 14.323 12.219 25.78 26.65 25.78 14.722 0 26.685-11.966 26.685-26.76 0-0.761-0.035-1.522-0.107-2.248v-78.682h330.897v81.873h0.037c0.507 14.322 12.254 25.78 26.65 25.78 14.72 0 26.686-11.966 26.686-26.76 0-0.761-0.036-1.522-0.11-2.248v-78.646h51.887c53.88 0 113.527 39.849 108.777 91.807l0.004 71.83z" fill="" p-id="4386"></path></svg>